<svg version="1.1" id="Layer_1" xmlns="http://www.w3.org/2000/svg" xmlns:xlink="http://www.w3.org/1999/xlink" x="0px" y="0px"
	 width="100%" viewBox="0 0 554 554" enable-background="new 0 0 554 554" xml:space="preserve">
<path fill="#FFFFFF" opacity="1.000000" stroke="none" 
	d="
M555.000000,212.000000 
	C555.000000,326.666656 555.000000,440.833344 555.000000,555.000000 
	C370.333344,555.000000 185.666672,555.000000 1.000000,555.000000 
	C1.000000,370.333344 1.000000,185.666672 1.000000,1.000000 
	C185.666672,1.000000 370.333344,1.000000 555.000000,1.000000 
	C555.000000,71.166664 555.000000,141.333328 555.000000,212.000000 
M18.964100,350.038788 
	C18.964100,350.038788 18.902666,350.059235 18.984123,350.817810 
	C24.222092,364.831879 33.114113,376.003082 44.990623,385.036163 
	C61.860985,397.867554 82.276413,400.389923 102.365562,405.775757 
	C117.143806,409.486053 131.849304,413.530121 146.729462,416.772766 
	C154.764877,418.523865 161.622223,421.211487 165.966660,428.653564 
	C169.320160,434.398102 172.970627,439.969299 176.790375,446.237213 
	C183.249496,456.490112 189.708618,466.743042 196.234726,477.688202 
	C198.066772,480.569214 199.995316,483.393921 201.714264,486.340912 
	C209.423691,499.557831 218.289368,511.653717 231.440933,520.176880 
	C249.210037,531.692566 268.437378,535.028992 289.202362,532.118713 
	C307.816437,529.510010 323.608124,521.271057 335.703766,507.362488 
	C343.639282,498.237488 349.389282,487.211884 356.726776,476.709564 
	C358.334412,474.109375 359.978699,471.531006 361.542725,468.904816 
	C366.062836,461.315125 370.550568,453.706146 375.685242,445.808411 
	C378.788269,440.885406 382.043854,436.050690 384.957214,431.017914 
	C388.932861,424.149994 393.781067,419.217987 402.293030,417.699951 
	C412.041321,415.961395 421.512512,412.668976 431.921112,410.006287 
	C432.418549,409.999664 432.940857,410.091034 433.409851,409.972198 
	C448.138733,406.238831 462.862457,402.485260 477.586884,398.734253 
	C492.347748,394.973969 505.580383,388.495789 516.669922,376.823517 
	C518.800110,374.357086 521.413574,372.159576 522.965149,369.371185 
	C526.846008,362.396912 530.245117,355.154602 533.986877,347.260956 
	C535.323975,341.834320 538.307312,336.212921 537.692627,331.017151 
	C535.768066,314.748535 527.874268,300.775879 517.996521,287.176514 
	C512.344910,280.412872 506.693268,273.649231 500.784424,266.273193 
	C493.224365,260.165314 485.664337,254.057419 477.816223,247.309250 
	C468.889221,242.499527 459.962250,237.689819 450.672211,232.234253 
	C440.782410,229.211960 430.892609,226.189667 420.161804,223.021774 
	C412.441864,222.070480 404.721954,221.119186 396.075043,220.024399 
	C390.038208,220.310165 384.001373,220.595932 377.059601,220.981110 
	C370.338867,221.969757 363.618164,222.958405 356.063599,223.989853 
	C347.376892,226.715729 338.690155,229.441620 329.268127,232.038559 
	C319.829498,237.322845 310.390869,242.607117 300.245911,247.995316 
	C292.159058,254.718948 284.072205,261.442566 275.371216,267.869385 
	C266.930634,260.878082 258.490051,253.886780 249.736313,246.275040 
	C242.836304,242.475098 235.936295,238.675156 228.679321,234.235184 
	C227.049271,233.606171 225.440353,232.914078 223.785278,232.359802 
	C218.532974,230.600845 213.263474,228.893295 207.307495,226.817917 
	C199.871948,225.267319 192.436417,223.716721 184.251572,221.769852 
	C174.835464,221.235687 165.419342,220.701538 155.140411,220.023071 
	C147.427460,221.070755 139.714523,222.118454 131.205078,223.045456 
	C123.137199,225.419495 115.069321,227.793518 106.285355,230.253647 
	C97.857887,234.558426 89.430420,238.863190 80.320290,243.232056 
	C73.865906,248.116730 67.411522,253.001389 60.337360,258.166931 
	C58.715637,259.501373 56.868919,260.640442 55.511105,262.204071 
	C49.580341,269.033875 43.791492,275.986969 37.322609,283.183380 
	C31.859051,292.240906 26.191349,301.182892 20.982038,310.384338 
	C13.984534,322.744385 12.602420,335.680115 18.129299,349.547119 
	C18.405428,349.732391 18.681557,349.917664 18.964100,350.038788 
M148.974304,161.105774 
	C147.927429,147.402786 146.880569,133.699799 145.974182,119.079681 
	C145.974182,114.217979 145.974182,109.356270 145.974182,104.730690 
	C150.209824,107.565964 155.048019,110.804573 160.172897,114.678787 
	C161.465164,115.640671 162.740509,116.626312 164.052338,117.560745 
	C176.016129,126.082710 187.986267,134.595764 200.263367,143.725510 
	C208.094589,149.233093 215.799606,154.931976 223.788101,160.201141 
	C234.425552,167.217590 244.364304,175.502182 257.194641,178.654556 
	C271.851227,182.255676 286.428986,182.568039 300.483978,176.725403 
	C319.700897,168.736969 335.336151,155.051712 352.688629,142.818802 
	C365.162872,133.894302 377.637085,124.969795 390.736847,115.770554 
	C396.009521,111.938538 401.282227,108.106522 406.968140,103.974182 
	C406.675385,110.187279 406.420746,115.592186 406.020294,121.871422 
	C405.996155,123.198357 406.037506,124.530243 405.937744,125.851463 
	C405.027588,137.901260 404.092865,149.949173 403.019867,162.913315 
	C402.350098,172.919312 401.516724,182.919327 401.149841,192.936401 
	C401.077301,194.917603 402.309326,197.565781 403.834503,198.805862 
	C405.256805,199.962250 407.858948,199.770020 409.960876,199.972153 
	C430.875977,201.983551 450.628357,208.060364 469.618774,216.869217 
	C470.875092,217.451981 472.335083,217.595734 474.741302,218.208969 
	C467.715790,207.594208 464.359131,197.256516 464.972565,185.735657 
	C465.393494,177.830093 465.556396,169.910828 465.974640,161.132065 
	C466.927734,147.753754 467.880829,134.375443 468.974731,120.077721 
	C469.260864,109.718124 469.546997,99.358528 469.973602,88.160576 
	C469.648193,85.610336 469.499542,83.021851 468.957733,80.518448 
	C468.048401,76.316917 466.888794,72.169571 465.963837,67.244797 
	C462.012695,60.035019 459.157837,51.877861 453.901794,45.795746 
	C439.021698,28.576925 416.586090,26.093794 397.000824,35.738415 
	C387.907715,40.216270 379.693298,46.536747 371.271942,52.301559 
	C364.851959,56.696373 358.733521,61.531704 351.744934,66.100571 
	C341.794739,73.383781 331.844543,80.666985 321.260712,88.221947 
	C309.138550,96.797920 297.016357,105.373886 284.244537,114.236343 
	C278.216125,119.705635 272.485168,118.760307 266.897797,113.493156 
	C266.494110,113.112610 265.717896,113.127258 264.827789,112.326096 
	C257.840912,107.340889 250.877686,102.322159 243.861557,97.378487 
	C233.836899,90.314972 223.773544,83.306381 213.260437,75.831184 
	C212.917191,75.471870 212.621552,75.045540 212.223831,74.762878 
	C195.423645,62.822578 178.908127,50.449032 161.704910,39.119835 
	C149.854523,31.315729 136.361053,28.139160 122.118149,31.430698 
	C100.026138,36.536160 86.934120,56.252014 83.994316,78.829315 
	C83.329437,83.810860 82.152702,88.788475 82.114464,93.774826 
	C82.050148,102.159897 82.699272,110.551003 83.096992,118.937248 
	C83.115028,119.317482 83.611633,119.675011 83.981041,120.967888 
	C84.709145,134.644470 85.437256,148.321060 86.019951,162.880997 
	C86.223083,164.992966 86.578743,167.103165 86.603241,169.217209 
	C86.716133,178.960144 88.914474,188.809021 86.112236,198.412720 
	C84.176872,205.045547 81.387047,211.429031 78.835068,218.312347 
	C101.839523,208.017670 125.528862,200.522369 151.356567,198.766693 
	C150.498077,186.250092 149.666351,174.123886 148.974304,161.105774 
z"/>
<path fill="#F49C04" opacity="1.000000" stroke="none" 
	d="
M101.955933,405.111938 
	C82.276413,400.389923 61.860985,397.867554 44.990623,385.036163 
	C33.114113,376.003082 24.222092,364.831879 19.260744,350.559448 
	C24.372799,356.123657 29.063040,362.131287 37.241756,364.284851 
	C44.146748,367.558533 51.052452,367.054779 58.326241,365.854858 
	C69.046745,361.983612 77.463936,356.124542 81.268448,344.783661 
	C83.063919,342.029541 84.590950,339.491760 86.518402,336.972809 
	C93.683929,338.661346 100.450630,340.324585 107.213852,342.001892 
	C128.956497,347.394012 150.873337,352.179260 172.392807,358.350067 
	C196.376282,365.227448 212.812988,381.510132 223.337891,403.660522 
	C220.668976,403.851288 218.510529,403.989685 216.352020,403.990479 
	C180.092056,404.003845 143.832077,403.983459 107.572227,404.047333 
	C105.699509,404.050629 103.828003,404.741302 101.955933,405.111938 
z"/>
<path fill="#F7AE05" opacity="1.000000" stroke="none" 
	d="
M356.118042,477.037476 
	C349.389282,487.211884 343.639282,498.237488 335.703766,507.362488 
	C323.608124,521.271057 307.816437,529.510010 289.202362,532.118713 
	C268.437378,535.028992 249.210037,531.692566 231.440933,520.176880 
	C218.289368,511.653717 209.423691,499.557831 201.714264,486.340912 
	C199.995316,483.393921 198.066772,480.569214 196.604553,477.281006 
	C199.260483,476.582520 201.546310,476.039398 203.832703,476.037079 
	C251.811569,475.987976 299.790527,475.982727 347.769348,476.044342 
	C350.552704,476.047913 353.335175,476.691681 356.118042,477.037476 
z"/>
<path fill="#ED6E01" opacity="1.000000" stroke="none" 
	d="
M213.726730,76.274338 
	C223.773544,83.306381 233.836899,90.314972 243.861557,97.378487 
	C250.877686,102.322159 257.840912,107.340889 264.495239,112.654694 
	C234.353485,112.988861 204.544174,112.947174 174.735306,113.046661 
	C169.784561,113.063187 164.835846,113.695450 159.886200,114.043175 
	C155.048019,110.804573 150.209824,107.565964 145.974182,104.730690 
	C145.974182,109.356270 145.974182,114.217979 145.446198,119.539291 
	C124.573921,120.013641 104.229630,120.028381 83.885338,120.043121 
	C83.611633,119.675011 83.115028,119.317482 83.096992,118.937248 
	C82.699272,110.551003 82.050148,102.159897 82.114464,93.774826 
	C82.152702,88.788475 83.329437,83.810860 84.538513,78.414200 
	C125.453568,77.999390 165.824493,78.030487 206.195068,77.926094 
	C208.707031,77.919601 211.216248,76.849556 213.726730,76.274338 
z"/>
<path fill="#EE7301" opacity="1.000000" stroke="none" 
	d="
M160.029541,114.360977 
	C164.835846,113.695450 169.784561,113.063187 174.735306,113.046661 
	C204.544174,112.947174 234.353485,112.988861 264.638763,112.970726 
	C265.717896,113.127258 266.494110,113.112610 266.897797,113.493156 
	C272.485168,118.760307 278.216125,119.705635 284.960205,114.262299 
	C287.629364,114.525505 289.582581,114.966713 291.536407,114.969498 
	C322.131165,115.013031 352.726105,114.977913 383.320770,115.045059 
	C385.584991,115.050026 387.847839,115.696861 390.111328,116.045288 
	C377.637085,124.969795 365.162872,133.894302 352.084839,142.647675 
	C350.510132,142.318024 349.539276,142.021225 348.568268,142.020767 
	C300.406555,141.997879 252.244812,141.991180 204.083160,142.046738 
	C202.706558,142.048325 201.330734,142.740982 199.954559,143.111420 
	C187.986267,134.595764 176.016129,126.082710 164.052338,117.560745 
	C162.740509,116.626312 161.465164,115.640671 160.029541,114.360977 
z"/>
<path fill="#F49E04" opacity="1.000000" stroke="none" 
	d="
M516.050110,377.104584 
	C505.580383,388.495789 492.347748,394.973969 477.586884,398.734253 
	C462.862457,402.485260 448.138733,406.238831 433.409851,409.972198 
	C432.940857,410.091034 432.418549,409.999664 431.122009,409.859070 
	C428.206909,409.474579 426.091278,409.034027 423.974884,409.030457 
	C390.943085,408.974731 357.911163,408.975464 324.938171,408.606262 
	C325.666626,407.159882 326.321991,406.061401 327.007935,404.982391 
	C333.781586,394.327484 339.795746,383.093201 350.274719,375.125916 
	C352.791473,375.526642 354.915039,375.968353 357.038910,375.969971 
	C407.999573,376.008545 458.960266,375.987213 509.920898,376.046692 
	C511.964386,376.049072 514.007080,376.736389 516.050110,377.104584 
z"/>
<path fill="#F6A804" opacity="1.000000" stroke="none" 
	d="
M356.422424,476.873535 
	C353.335175,476.691681 350.552704,476.047913 347.769348,476.044342 
	C299.790527,475.982727 251.811569,475.987976 203.832703,476.037079 
	C201.546310,476.039398 199.260483,476.582520 196.571060,476.934875 
	C189.708618,466.743042 183.249496,456.490112 176.959076,445.564117 
	C179.044144,444.594025 180.959702,444.044861 182.877014,444.038544 
	C204.958191,443.965881 227.039658,443.975525 249.435394,444.106079 
	C253.528000,450.284119 257.112671,456.451538 261.125610,462.326447 
	C268.989349,473.838928 283.848907,473.650116 291.154602,462.328766 
	C295.092743,456.225983 298.973175,450.085999 303.273010,444.126373 
	C305.621613,444.526642 307.576324,444.964050 309.532196,444.968994 
	C329.497070,445.019653 349.462311,444.970581 369.427032,445.048126 
	C371.303040,445.055389 373.176422,445.736511 375.051025,446.104736 
	C370.550568,453.706146 366.062836,461.315125 361.542725,468.904816 
	C359.978699,471.531006 358.334412,474.109375 356.422424,476.873535 
z"/>
<path fill="#ED6E01" opacity="1.000000" stroke="none" 
	d="
M390.424072,115.907921 
	C387.847839,115.696861 385.584991,115.050026 383.320770,115.045059 
	C352.726105,114.977913 322.131165,115.013031 291.536407,114.969498 
	C289.582581,114.966713 287.629364,114.525505 285.285034,114.119064 
	C297.016357,105.373886 309.138550,96.797920 321.968384,88.255173 
	C324.797699,88.525597 326.919159,88.968063 329.041046,88.969826 
	C375.971710,89.008919 422.902435,88.999283 469.833130,88.998932 
	C469.546997,99.358528 469.260864,109.718124 468.446594,120.538406 
	C447.334320,120.998421 426.750183,120.997757 406.166077,120.997086 
	C406.420746,115.592186 406.675385,110.187279 406.968140,103.974182 
	C401.282227,108.106522 396.009521,111.938538 390.424072,115.907921 
z"/>
<path fill="#EC6600" opacity="1.000000" stroke="none" 
	d="
M213.493591,76.052765 
	C211.216248,76.849556 208.707031,77.919601 206.195068,77.926094 
	C165.824493,78.030487 125.453568,77.999390 84.625031,77.998306 
	C86.934120,56.252014 100.026138,36.536160 122.118149,31.430698 
	C136.361053,28.139160 149.854523,31.315729 161.704910,39.119835 
	C178.908127,50.449032 195.423645,62.822578 212.223831,74.762878 
	C212.621552,75.045540 212.917191,75.471870 213.493591,76.052765 
z"/>
<path fill="#EE7901" opacity="1.000000" stroke="none" 
	d="
M200.108963,143.418457 
	C201.330734,142.740982 202.706558,142.048325 204.083160,142.046738 
	C252.244812,141.991180 300.406555,141.997879 348.568268,142.020767 
	C349.539276,142.021225 350.510132,142.318024 351.764801,142.792267 
	C335.336151,155.051712 319.700897,168.736969 300.483978,176.725403 
	C286.428986,182.568039 271.851227,182.255676 257.194641,178.654556 
	C244.364304,175.502182 234.425552,167.217590 223.788101,160.201141 
	C215.799606,154.931976 208.094589,149.233093 200.108963,143.418457 
z"/>
<path fill="#F39903" opacity="1.000000" stroke="none" 
	d="
M516.359985,376.964050 
	C514.007080,376.736389 511.964386,376.049072 509.920898,376.046692 
	C458.960266,375.987213 407.999573,376.008545 357.038910,375.969971 
	C354.915039,375.968353 352.791473,375.526642 350.422302,374.810364 
	C357.701843,369.879242 364.785278,364.230469 372.854431,361.254059 
	C385.264679,356.676331 398.304352,353.748474 411.162933,350.456177 
	C429.374023,345.793365 447.663330,341.435944 466.275024,337.011475 
	C467.235962,337.992920 467.889771,338.882843 468.437958,339.833649 
	C470.965454,344.217255 473.463440,348.617828 476.016174,353.356445 
	C482.052826,362.491638 491.187469,365.358429 501.439636,366.953552 
	C508.660522,366.299469 515.543518,365.928040 521.378723,361.006531 
	C525.757935,356.641602 529.797729,352.330719 533.837524,348.019836 
	C530.245117,355.154602 526.846008,362.396912 522.965149,369.371185 
	C521.413574,372.159576 518.800110,374.357086 516.359985,376.964050 
z"/>
<path fill="#F5A304" opacity="1.000000" stroke="none" 
	d="
M249.121033,443.963287 
	C227.039658,443.975525 204.958191,443.965881 182.877014,444.038544 
	C180.959702,444.044861 179.044144,444.594025 176.808411,445.254272 
	C172.970627,439.969299 169.320160,434.398102 165.966660,428.653564 
	C161.622223,421.211487 154.764877,418.523865 146.729462,416.772766 
	C131.849304,413.530121 117.143806,409.486053 102.160751,405.443848 
	C103.828003,404.741302 105.699509,404.050629 107.572227,404.047333 
	C143.832077,403.983459 180.092056,404.003845 216.352020,403.990479 
	C218.510529,403.989685 220.668976,403.851288 223.597656,403.853699 
	C225.606491,405.816620 226.895370,407.671936 228.075531,409.593994 
	C235.104645,421.041870 242.108612,432.505188 249.121033,443.963287 
z"/>
<path fill="#F6A804" opacity="1.000000" stroke="none" 
	d="
M275.985352,268.166199 
	C284.072205,261.442566 292.159058,254.718948 300.767395,248.334808 
	C301.525909,250.791077 301.966003,252.907471 301.969604,255.024628 
	C302.026428,288.397308 302.027130,321.770111 301.907257,355.446259 
	C293.819946,364.737579 283.746826,368.034760 272.001678,366.419250 
	C272.335449,363.718109 272.950043,361.436066 272.956329,359.152374 
	C273.025391,334.040314 273.079407,308.927368 272.866028,283.816925 
	C272.846558,281.521393 270.950287,279.241852 270.072693,276.650604 
	C272.141663,273.619629 274.063507,270.892914 275.985352,268.166199 
z"/>
<path fill="#EC6600" opacity="1.000000" stroke="none" 
	d="
M352.480927,66.171051 
	C358.733521,61.531704 364.851959,56.696373 371.271942,52.301559 
	C379.693298,46.536747 387.907715,40.216270 397.000824,35.738415 
	C416.586090,26.093794 439.021698,28.576925 453.901794,45.795746 
	C459.157837,51.877861 462.012695,60.035019 465.441315,67.622330 
	C429.529846,67.999901 394.140839,68.030991 358.752228,67.921806 
	C356.660004,67.915359 354.571289,66.780693 352.480927,66.171051 
z"/>
<path fill="#F5A304" opacity="1.000000" stroke="none" 
	d="
M375.368134,445.956573 
	C373.176422,445.736511 371.303040,445.055389 369.427032,445.048126 
	C349.462311,444.970581 329.497070,445.019653 309.532196,444.968994 
	C307.576324,444.964050 305.621613,444.526642 303.423157,443.804565 
	C310.413055,431.867188 317.646179,420.415192 324.879272,408.963196 
	C357.911163,408.975464 390.943085,408.974731 423.974884,409.030457 
	C426.091278,409.034027 428.206909,409.474579 430.713501,409.881775 
	C421.512512,412.668976 412.041321,415.961395 402.293030,417.699951 
	C393.781067,419.217987 388.932861,424.149994 384.957214,431.017914 
	C382.043854,436.050690 378.788269,440.885406 375.368134,445.956573 
z"/>
<path fill="#EC6A01" opacity="1.000000" stroke="none" 
	d="
M352.112915,66.135803 
	C354.571289,66.780693 356.660004,67.915359 358.752228,67.921806 
	C394.140839,68.030991 429.529846,67.999901 465.376648,67.999641 
	C466.888794,72.169571 468.048401,76.316917 468.957733,80.518448 
	C469.499542,83.021851 469.648193,85.610336 469.903381,88.579758 
	C422.902435,88.999283 375.971710,89.008919 329.041046,88.969826 
	C326.919159,88.968063 324.797699,88.525597 322.285156,88.119293 
	C331.844543,80.666985 341.794739,73.383781 352.112915,66.135803 
z"/>
<path fill="#EF7E02" opacity="1.000000" stroke="none" 
	d="
M465.834656,161.997681 
	C465.556396,169.910828 465.393494,177.830093 464.972565,185.735657 
	C464.359131,197.256516 467.715790,207.594208 474.741302,218.208969 
	C472.335083,217.595734 470.875092,217.451981 469.618774,216.869217 
	C450.628357,208.060364 430.875977,201.983551 409.960876,199.972153 
	C407.858948,199.770020 405.256805,199.962250 403.834503,198.805862 
	C402.309326,197.565781 401.077301,194.917603 401.149841,192.936401 
	C401.516724,182.919327 402.350098,172.919312 403.550385,162.456299 
	C424.665497,161.998749 445.250061,161.998215 465.834656,161.997681 
z"/>
<path fill="#EF7E02" opacity="1.000000" stroke="none" 
	d="
M148.834641,161.997696 
	C149.666351,174.123886 150.498077,186.250092 151.356567,198.766693 
	C125.528862,200.522369 101.839523,208.017670 78.835068,218.312347 
	C81.387047,211.429031 84.176872,205.045547 86.112236,198.412720 
	C88.914474,188.809021 86.716133,178.960144 86.603241,169.217209 
	C86.578743,167.103165 86.223083,164.992966 86.550430,162.440140 
	C107.665489,161.998764 128.250061,161.998230 148.834641,161.997696 
z"/>
<path fill="#EE7601" opacity="1.000000" stroke="none" 
	d="
M148.904480,161.551727 
	C128.250061,161.998230 107.665489,161.998764 86.623138,161.998474 
	C85.437256,148.321060 84.709145,134.644470 83.933189,120.505508 
	C104.229630,120.028381 124.573921,120.013641 145.375961,119.997849 
	C146.880569,133.699799 147.927429,147.402786 148.904480,161.551727 
z"/>
<path fill="#F4A104" opacity="1.000000" stroke="none" 
	d="
M302.040710,355.142853 
	C302.027130,321.770111 302.026428,288.397308 301.969604,255.024628 
	C301.966003,252.907471 301.525909,250.791077 301.120544,248.282867 
	C310.390869,242.607117 319.829498,237.322845 329.634644,232.560608 
	C330.000793,257.332092 329.974945,281.581573 330.044952,305.830811 
	C330.050995,307.928040 330.690857,310.023438 330.906311,312.423462 
	C320.295593,322.427429 312.884308,334.116638 307.707214,347.395721 
	C306.584045,350.276611 303.968750,352.575745 302.040710,355.142853 
z"/>
<path fill="#EE7601" opacity="1.000000" stroke="none" 
	d="
M465.904663,161.564880 
	C445.250061,161.998215 424.665497,161.998749 403.623138,161.998474 
	C404.092865,149.949173 405.027588,137.901260 405.937744,125.851463 
	C406.037506,124.530243 405.996155,123.198357 406.093201,121.434250 
	C426.750183,120.997757 447.334320,120.998421 468.376160,120.998116 
	C467.880829,134.375443 466.927734,147.753754 465.904663,161.564880 
z"/>
<path fill="#ED6E01" opacity="1.000000" stroke="none" 
	d="
M501.007935,366.932129 
	C491.187469,365.358429 482.052826,362.491638 476.319611,353.064697 
	C476.719299,350.620728 476.980591,348.812653 476.982056,347.004425 
	C477.007050,315.862762 476.980896,284.721100 477.047241,253.579575 
	C477.051239,251.702148 477.736176,249.826187 478.104279,247.949539 
	C485.664337,254.057419 493.224365,260.165314 500.892090,267.009888 
	C500.667603,269.533203 500.032745,271.322449 500.048309,273.106079 
	C500.320923,304.381836 500.673035,335.656921 501.007935,366.932129 
z"/>
<path fill="#EE7601" opacity="1.000000" stroke="none" 
	d="
M477.960266,247.629395 
	C477.736176,249.826187 477.051239,251.702148 477.047241,253.579575 
	C476.980896,284.721100 477.007050,315.862762 476.982056,347.004425 
	C476.980591,348.812653 476.719299,350.620728 476.275513,352.720581 
	C473.463440,348.617828 470.965454,344.217255 468.437958,339.833649 
	C467.889771,338.882843 467.235962,337.992920 466.308411,336.647217 
	C460.644104,328.851532 455.302246,321.483643 450.019226,313.693237 
	C450.385345,310.997559 450.952972,308.725159 450.960022,306.451080 
	C451.035889,281.927551 451.023499,257.403809 451.035248,232.880112 
	C459.962250,237.689819 468.889221,242.499527 477.960266,247.629395 
z"/>
<path fill="#EF7E02" opacity="1.000000" stroke="none" 
	d="
M450.853729,232.557190 
	C451.023499,257.403809 451.035889,281.927551 450.960022,306.451080 
	C450.952972,308.725159 450.385345,310.997559 449.707397,313.555115 
	C440.940399,305.410187 430.695312,299.881592 419.974121,294.642578 
	C419.990540,272.938171 419.962982,251.709610 420.044037,230.481461 
	C420.053345,228.042252 420.668549,225.605347 421.002808,223.167374 
	C430.892609,226.189667 440.782410,229.211960 450.853729,232.557190 
z"/>
<path fill="#F5A304" opacity="1.000000" stroke="none" 
	d="
M81.000000,345.000000 
	C77.463936,356.124542 69.046745,361.983612 58.336464,365.469299 
	C59.011589,362.589081 60.856552,359.957642 60.871101,357.316101 
	C61.053677,324.173584 60.971508,291.029633 60.957138,257.886047 
	C67.411522,253.001389 73.865906,248.116730 80.672920,243.612030 
	C81.350471,246.771759 81.949219,249.550705 81.957474,252.331390 
	C82.031044,277.102356 82.034172,301.873688 81.959602,326.644653 
	C81.949722,329.927643 81.296898,333.203796 81.109665,336.492676 
	C80.948624,339.321350 81.027313,342.163696 81.000000,345.000000 
z"/>
<path fill="#F49E04" opacity="1.000000" stroke="none" 
	d="
M81.268448,344.783661 
	C81.027313,342.163696 80.948624,339.321350 81.109665,336.492676 
	C81.296898,333.203796 81.949722,329.927643 81.959602,326.644653 
	C82.034172,301.873688 82.031044,277.102356 81.957474,252.331390 
	C81.949219,249.550705 81.350471,246.771759 81.014252,243.579987 
	C89.430420,238.863190 97.857887,234.558426 106.642982,230.668152 
	C107.000412,254.322006 106.965553,277.561493 107.045685,300.800598 
	C107.055244,303.574554 107.691017,306.346375 107.899788,309.429047 
	C102.821159,314.934814 97.599586,319.899384 93.040138,325.411621 
	C90.213181,328.829315 88.391113,333.078186 86.117981,336.953979 
	C84.590950,339.491760 83.063919,342.029541 81.268448,344.783661 
z"/>
<path fill="#F6AB05" opacity="1.000000" stroke="none" 
	d="
M60.647247,258.026489 
	C60.971508,291.029633 61.053677,324.173584 60.871101,357.316101 
	C60.856552,359.957642 59.011589,362.589081 58.007023,365.610779 
	C51.052452,367.054779 44.146748,367.558533 37.419167,363.940247 
	C37.902576,361.147491 38.917145,358.984192 38.928360,356.815704 
	C39.044952,334.266479 39.027721,311.716278 38.954483,289.166687 
	C38.947685,287.075134 38.300804,284.985718 37.951134,282.895294 
	C43.791492,275.986969 49.580341,269.033875 55.511105,262.204071 
	C56.868919,260.640442 58.715637,259.501373 60.647247,258.026489 
z"/>
<path fill="#F39903" opacity="1.000000" stroke="none" 
	d="
M331.036316,312.119690 
	C330.690857,310.023438 330.050995,307.928040 330.044952,305.830811 
	C329.974945,281.581573 330.000793,257.332092 330.002319,232.625092 
	C338.690155,229.441620 347.376892,226.715729 356.794800,224.253967 
	C357.683990,226.320251 357.976868,228.122192 357.979492,229.924576 
	C358.011658,251.894135 358.001160,273.863739 357.636780,295.911743 
	C348.526642,301.366638 339.781494,306.743164 331.036316,312.119690 
z"/>
<path fill="#F18A02" opacity="1.000000" stroke="none" 
	d="
M156.003235,220.167389 
	C165.419342,220.701538 174.835464,221.235687 184.563690,222.371338 
	C184.583878,225.086456 184.045776,227.199203 184.038132,229.313843 
	C183.962448,250.249130 183.974609,271.184723 183.540955,292.070129 
	C174.080795,291.290894 165.041611,290.561768 156.001617,289.374512 
	C156.001633,266.000000 156.002426,243.083694 156.003235,220.167389 
z"/>
<path fill="#F39903" opacity="1.000000" stroke="none" 
	d="
M108.036537,309.119202 
	C107.691017,306.346375 107.055244,303.574554 107.045685,300.800598 
	C106.965553,277.561493 107.000412,254.322006 107.001022,230.625092 
	C115.069321,227.793518 123.137199,225.419495 131.602814,223.563446 
	C132.011978,247.762161 132.023407,271.442871 131.855438,295.439941 
	C123.796181,300.210571 115.916367,304.664886 108.036537,309.119202 
z"/>
<path fill="#F08202" opacity="1.000000" stroke="none" 
	d="
M183.961914,292.120239 
	C183.974609,271.184723 183.962448,250.249130 184.038132,229.313843 
	C184.045776,227.199203 184.583878,225.086456 184.938354,222.569489 
	C192.436417,223.716721 199.871948,225.267319 207.653778,227.449615 
	C207.986771,252.760712 207.973480,277.440094 207.596069,302.062927 
	C199.475281,298.710968 191.718597,295.415588 183.961914,292.120239 
z"/>
<path fill="#EE7601" opacity="1.000000" stroke="none" 
	d="
M229.036285,234.875214 
	C235.936295,238.675156 242.836304,242.475098 249.723877,246.976074 
	C249.526215,248.136078 249.180923,248.594330 249.178848,249.054123 
	C249.103058,265.923645 249.004410,282.793762 249.134888,299.662048 
	C249.143509,300.776520 250.931992,301.877258 251.768524,303.302307 
	C244.949783,314.852875 240.385284,326.652313 241.623291,339.921295 
	C236.855469,332.880890 232.406876,325.999939 228.017303,318.696259 
	C228.384018,315.999725 228.952652,313.726685 228.959381,311.451965 
	C229.034912,285.926514 229.023972,260.400848 229.036285,234.875214 
z"/>
<path fill="#F29203" opacity="1.000000" stroke="none" 
	d="
M132.034851,295.123596 
	C132.023407,271.442871 132.011978,247.762161 132.001053,223.623810 
	C139.714523,222.118454 147.427460,221.070755 155.571823,220.095230 
	C156.002426,243.083694 156.001633,266.000000 155.581940,289.446747 
	C147.453644,291.692627 139.744247,293.408112 132.034851,295.123596 
z"/>
<path fill="#EF7E02" opacity="1.000000" stroke="none" 
	d="
M228.857788,234.555206 
	C229.023972,260.400848 229.034912,285.926514 228.959381,311.451965 
	C228.952652,313.726685 228.384018,315.999725 227.708252,318.559753 
	C220.880157,313.270447 214.420166,307.694977 207.960190,302.119476 
	C207.973480,277.440094 207.986771,252.760712 208.000336,227.623596 
	C213.263474,228.893295 218.532974,230.600845 223.785278,232.359802 
	C225.440353,232.914078 227.049271,233.606171 228.857788,234.555206 
z"/>
<path fill="#F08702" opacity="1.000000" stroke="none" 
	d="
M420.582306,223.094574 
	C420.668549,225.605347 420.053345,228.042252 420.044037,230.481461 
	C419.962982,251.709610 419.990540,272.938171 419.587158,294.583008 
	C411.792694,293.276947 404.396973,291.554535 397.000793,289.373993 
	C397.000946,265.999878 397.001495,243.083893 397.002014,220.167908 
	C404.721954,221.119186 412.441864,222.070480 420.582306,223.094574 
z"/>
<path fill="#EC6A01" opacity="1.000000" stroke="none" 
	d="
M501.439636,366.953552 
	C500.673035,335.656921 500.320923,304.381836 500.048309,273.106079 
	C500.032745,271.322449 500.667603,269.533203 501.020691,267.316101 
	C506.693268,273.649231 512.344910,280.412872 518.006714,288.005371 
	C518.011292,310.928040 518.045654,333.022003 517.948364,355.115417 
	C517.936462,357.816467 518.333435,359.944305 521.039246,361.060577 
	C515.543518,365.928040 508.660522,366.299469 501.439636,366.953552 
z"/>
<path fill="#F29203" opacity="1.000000" stroke="none" 
	d="
M358.001740,295.833344 
	C358.001160,273.863739 358.011658,251.894135 357.979492,229.924576 
	C357.976868,228.122192 357.683990,226.320251 357.211731,224.232574 
	C363.618164,222.958405 370.338867,221.969757 377.522949,221.407959 
	C378.002655,244.595795 378.019043,267.356781 377.818604,290.458435 
	C371.068451,292.477203 364.535095,294.155273 358.001740,295.833344 
z"/>
<path fill="#F7AE05" opacity="1.000000" stroke="none" 
	d="
M37.636871,283.039337 
	C38.300804,284.985718 38.947685,287.075134 38.954483,289.166687 
	C39.027721,311.716278 39.044952,334.266479 38.928360,356.815704 
	C38.917145,358.984192 37.902576,361.147491 37.176384,363.657837 
	C29.063040,362.131287 24.372799,356.123657 19.220016,350.180176 
	C18.902666,350.059235 18.964100,350.038788 18.893782,349.850647 
	C18.683262,349.374207 18.466406,349.165558 18.172895,349.036591 
	C12.602420,335.680115 13.984534,322.744385 20.982038,310.384338 
	C26.191349,301.182892 31.859051,292.240906 37.636871,283.039337 
z"/>
<path fill="#F18A02" opacity="1.000000" stroke="none" 
	d="
M378.035400,290.117737 
	C378.019043,267.356781 378.002655,244.595795 377.975403,221.358246 
	C384.001373,220.595932 390.038208,220.310165 396.538513,220.096161 
	C397.001495,243.083893 397.000946,265.999878 396.537292,289.445740 
	C390.061279,290.022980 384.048340,290.070343 378.035400,290.117737 
z"/>
<path fill="#EC6600" opacity="1.000000" stroke="none" 
	d="
M521.378723,361.006531 
	C518.333435,359.944305 517.936462,357.816467 517.948364,355.115417 
	C518.045654,333.022003 518.011292,310.928040 518.029968,288.357910 
	C527.874268,300.775879 535.768066,314.748535 537.692627,331.017151 
	C538.307312,336.212921 535.323975,341.834320 533.912231,347.640381 
	C529.797729,352.330719 525.757935,356.641602 521.378723,361.006531 
z"/>
<path fill="#ED6E01" opacity="1.000000" stroke="none" 
	d="
M251.892578,302.984375 
	C250.931992,301.877258 249.143509,300.776520 249.134888,299.662048 
	C249.004410,282.793762 249.103058,265.923645 249.178848,249.054123 
	C249.180923,248.594330 249.526215,248.136078 249.880447,247.286285 
	C258.490051,253.886780 266.930634,260.878082 275.678284,268.017792 
	C274.063507,270.892914 272.141663,273.619629 269.781403,276.812256 
	C263.526184,285.846893 257.709381,294.415619 251.892578,302.984375 
z"/>
<path fill="#F49C04" opacity="1.000000" stroke="none" 
	d="
M18.151096,349.291870 
	C18.466406,349.165558 18.683262,349.374207 18.890575,349.882721 
	C18.681557,349.917664 18.405428,349.732391 18.151096,349.291870 
z"/>
<path fill="#FFFFFF" opacity="1.000000" stroke="none" 
	d="
M377.818604,290.458435 
	C384.048340,290.070343 390.061279,290.022980 396.537720,289.903870 
	C404.396973,291.554535 411.792694,293.276947 419.575409,295.058960 
	C430.695312,299.881592 440.940399,305.410187 449.648590,313.977600 
	C455.302246,321.483643 460.644104,328.851532 465.952576,336.583710 
	C447.663330,341.435944 429.374023,345.793365 411.162933,350.456177 
	C398.304352,353.748474 385.264679,356.676331 372.854431,361.254059 
	C364.785278,364.230469 357.701843,369.879242 350.029236,374.646332 
	C339.795746,383.093201 333.781586,394.327484 327.007935,404.982391 
	C326.321991,406.061401 325.666626,407.159882 324.938171,408.606262 
	C317.646179,420.415192 310.413055,431.867188 303.029785,443.640991 
	C298.973175,450.085999 295.092743,456.225983 291.154602,462.328766 
	C283.848907,473.650116 268.989349,473.838928 261.125610,462.326447 
	C257.112671,456.451538 253.528000,450.284119 249.435394,444.106079 
	C242.108612,432.505188 235.104645,421.041870 228.075531,409.593994 
	C226.895370,407.671936 225.606491,405.816620 224.108078,403.737274 
	C212.812988,381.510132 196.376282,365.227448 172.392807,358.350067 
	C150.873337,352.179260 128.956497,347.394012 107.213852,342.001892 
	C100.450630,340.324585 93.683929,338.661346 86.518402,336.972809 
	C88.391113,333.078186 90.213181,328.829315 93.040138,325.411621 
	C97.599586,319.899384 102.821159,314.934814 107.899796,309.429077 
	C115.916367,304.664886 123.796181,300.210571 131.855438,295.439941 
	C139.744247,293.408112 147.453644,291.692627 155.582733,289.904907 
	C165.041611,290.561768 174.080795,291.290894 183.540955,292.070129 
	C191.718597,295.415588 199.475281,298.710968 207.596069,302.062927 
	C214.420166,307.694977 220.880157,313.270447 227.649216,318.982452 
	C232.406876,325.999939 236.855469,332.880890 241.659927,340.296326 
	C242.342865,341.736084 242.647659,342.650146 243.000397,343.545349 
	C248.233643,356.826782 257.468201,365.131012 272.000000,366.837585 
	C283.746826,368.034760 293.819946,364.737579 301.907227,355.446259 
	C303.968750,352.575745 306.584045,350.276611 307.707214,347.395721 
	C312.884308,334.116638 320.295593,322.427429 330.906311,312.423462 
	C339.781494,306.743164 348.526642,301.366638 357.636780,295.911743 
	C364.535095,294.155273 371.068451,292.477203 377.818604,290.458435 
z"/>
<path fill="#F7AE05" opacity="1.000000" stroke="none" 
	d="
M272.001678,366.419250 
	C257.468201,365.131012 248.233643,356.826782 243.000397,343.545349 
	C242.647659,342.650146 242.342865,341.736084 241.979156,340.455750 
	C240.385284,326.652313 244.949783,314.852875 251.768524,303.302307 
	C257.709381,294.415619 263.526184,285.846893 269.634277,277.116516 
	C270.950287,279.241852 272.846558,281.521393 272.866028,283.816925 
	C273.079407,308.927368 273.025391,334.040314 272.956329,359.152374 
	C272.950043,361.436066 272.335449,363.718109 272.001678,366.419250 
z"/>
</svg>